nColumns=28
nRows=46
DataType=double
version=3
OpenSimVersion=4.1
endheader
time	ground_force_1_vx	ground_force_1_vy	ground_force_1_vz	ground_force_1_px	ground_force_1_py	ground_force_1_pz	ground_force_1_mx	ground_force_1_my	ground_force_1_mz	ground_force_2_vx	ground_force_2_vy	ground_force_2_vz	ground_force_2_px	ground_force_2_py	ground_force_2_pz	ground_force_2_mx	ground_force_2_my	ground_force_2_mz	ground_force_3_vx	ground_force_3_vy	ground_force_3_vz	ground_force_3_px	ground_force_3_py	ground_force_3_pz	ground_force_3_mx	ground_force_3_my	ground_force_3_mz
8.87	-15.882	147.986	-10.2919	-0.212342	0.006	-0.472879	0	0.483044	0	-17.3207	191.739	15.9005	-0.196957	0.006	-0.733436	0	0.131691	0	0	0	0	0	0	0	0	0	0
8.88	-14.6051	153.005	-11.4413	-0.217599	0.006	-0.47206	0	0.50038	0	-17.1704	191.347	16.312	-0.20054	0.006	-0.733184	0	0.135553	0	0	0	0	0	0	0	0	0	0
8.89	-12.703	162.345	-12.0486	-0.224772	0.006	-0.471475	0	0.47637	0	-16.9503	193.499	16.9295	-0.204823	0.006	-0.73342	0	0.185614	0	0	0	0	0	0	0	0	0	0
8.9	-8.80554	177.351	-12.2398	-0.234437	0.006	-0.470725	0	0.379142	0	-15.4795	196.78	17.4559	-0.210069	0.006	-0.733549	0	0.283293	0	0	0	0	0	0	0	0	0	0
8.91	-3.82282	196.201	-14.1384	-0.244583	0.006	-0.469628	0	0.312736	0	-12.8097	200.3	18.0917	-0.215547	0.006	-0.733716	0	0.423668	0	0	0	0	0	0	0	0	0	0
8.92	0.0382113	216.288	-17.3844	-0.252998	0.006	-0.468125	0	0.349331	0	-9.77437	204.972	19.2356	-0.221395	0.006	-0.734312	0	0.554518	0	0	0	0	0	0	0	0	0	0
8.93	1.64975	233.42	-18.7832	-0.258878	0.006	-0.467687	0	0.426157	0	-7.2809	209.778	19.9962	-0.227581	0.006	-0.734335	0	0.625714	0	0	0	0	0	0	0	0	0	0
8.94	0.837629	246.623	-18.7236	-0.262598	0.006	-0.467922	0	0.490555	0	-5.79533	212.622	19.2233	-0.233127	0.006	-0.7338	0	0.72157	0	0	0	0	0	0	0	0	0	0
8.95	-1.06586	259.811	-18.6853	-0.265572	0.006	-0.467906	0	0.529885	0	-5.25658	214.643	17.6376	-0.237959	0.006	-0.732745	0	0.804258	0	0	0	0	0	0	0	0	0	0
8.96	-1.97706	273.176	-18.6297	-0.268968	0.006	-0.467954	0	0.558991	0	-4.89769	216.139	16.2256	-0.242615	0.006	-0.73168	0	0.868165	0	0	0	0	0	0	0	0	0	0
8.97	-1.06052	284.6	-18.7393	-0.272504	0.006	-0.46771	0	0.575665	0	-3.77572	215.032	14.9237	-0.24714	0.006	-0.730397	0	0.953531	0	0	0	0	0	0	0	0	0	0
8.98	0.921433	294.809	-19.4014	-0.275796	0.006	-0.467355	0	0.569555	0	-1.60455	211.33	13.8142	-0.251356	0.006	-0.729174	0	1.03277	0	0	0	0	0	0	0	0	0	0
8.99	2.62851	306.263	-20.3941	-0.278644	0.006	-0.467152	0	0.577144	0	0.896268	208.403	13.2046	-0.255728	0.006	-0.728654	0	1.14016	0	0	0	0	0	0	0	0	0	0
9	3.04945	318.261	-21.11	-0.280658	0.006	-0.466921	0	0.616339	0	2.08126	209.193	13.4366	-0.259964	0.006	-0.728377	0	1.25926	0	0	0	0	0	0	0	0	0	0
9.01	2.29321	327.708	-21.5136	-0.281772	0.006	-0.46641	0	0.692481	0	1.76882	211.184	14.0327	-0.263436	0.006	-0.728193	0	1.32738	0	0	0	0	0	0	0	0	0	0
9.02	0.840768	333.772	-21.9229	-0.282556	0.006	-0.465921	0	0.764702	0	0.887617	212.049	14.4146	-0.266457	0.006	-0.727979	0	1.353	0	0	0	0	0	0	0	0	0	0
9.03	-0.505329	339.196	-22.3892	-0.283268	0.006	-0.46557	0	0.811286	0	-0.0503489	215.433	14.5781	-0.269301	0.006	-0.727869	0	1.39831	0	0	0	0	0	0	0	0	0	0
9.04	-1.22154	344.837	-22.5563	-0.284214	0.006	-0.465399	0	0.851502	0	-0.980112	223.502	14.6144	-0.271773	0.006	-0.72814	0	1.51532	0	0	0	0	0	0	0	0	0	0
9.05	-1.16406	351.008	-22.096	-0.28536	0.006	-0.465383	0	0.884682	0	-2.44919	233.042	14.8137	-0.273963	0.006	-0.728618	0	1.65241	0	0	0	0	0	0	0	0	0	0
9.06	-0.499089	356.373	-21.285	-0.286462	0.006	-0.465273	0	0.898431	0	-4.51388	241.405	15.4864	-0.275572	0.006	-0.729204	0	1.74373	0	0	0	0	0	0	0	0	0	0
9.07	0.0426281	360.959	-20.7745	-0.287351	0.006	-0.464983	0	0.879589	0	-6.74861	247.699	16.2953	-0.276923	0.006	-0.729788	0	1.75583	0	0	0	0	0	0	0	0	0	0
9.08	-0.134429	365.578	-20.4259	-0.288131	0.006	-0.46475	0	0.853243	0	-8.82917	251.571	16.8276	-0.278231	0.006	-0.730192	0	1.72934	0	0	0	0	0	0	0	0	0	0
9.09	-1.07055	368.205	-20.1423	-0.288792	0.006	-0.464512	0	0.820182	0	-10.0216	253.166	17.2278	-0.279581	0.006	-0.730467	0	1.70838	0	0	0	0	0	0	0	0	0	0
9.1	-2.15262	369.03	-20.8824	-0.289477	0.006	-0.464262	0	0.752439	0	-10.1548	253.177	17.5786	-0.281134	0.006	-0.730518	0	1.69971	0	0	0	0	0	0	0	0	0	0
9.11	-2.71486	369.59	-23.0107	-0.290307	0.006	-0.463921	0	0.700769	0	-9.4111	252.384	17.4386	-0.283082	0.006	-0.73023	0	1.67491	0	0	0	0	0	0	0	0	0	0
9.12	-2.95376	370.271	-25.3463	-0.291049	0.006	-0.463367	0	0.664734	0	-8.5423	251.438	16.7826	-0.285444	0.006	-0.729625	0	1.66889	0	0	0	0	0	0	0	0	0	0
9.13	-3.21101	370.168	-26.5509	-0.291651	0.006	-0.462849	0	0.656373	0	-8.57872	251.387	15.9181	-0.287467	0.006	-0.729196	0	1.67994	0	0	0	0	0	0	0	0	0	0
9.14	-3.79207	367.916	-26.5588	-0.292407	0.006	-0.462617	0	0.711138	0	-9.57135	251.536	14.6644	-0.289062	0.006	-0.728701	0	1.66739	0	0	0	0	0	0	0	0	0	0
9.15	-4.75819	365.983	-26.4567	-0.293412	0.006	-0.462596	0	0.76169	0	-10.7268	251.08	12.9716	-0.290389	0.006	-0.727979	0	1.66625	0	0	0	0	0	0	0	0	0	0
9.16	-6.20529	368.108	-26.7384	-0.294377	0.006	-0.462542	0	0.79985	0	-11.4238	250.88	11.2407	-0.291472	0.006	-0.727371	0	1.68768	0	0	0	0	0	0	0	0	0	0
9.17	-8.17854	373.131	-26.9304	-0.294989	0.006	-0.462397	0	0.882096	0	-11.9484	252.21	10.3475	-0.292439	0.006	-0.727164	0	1.75417	0	0	0	0	0	0	0	0	0	0
9.18	-10.2246	377.8	-26.1592	-0.295512	0.006	-0.462456	0	1.0399	0	-13.0868	254.694	10.6523	-0.293371	0.006	-0.727133	0	1.85596	0	0	0	0	0	0	0	0	0	0
9.19	-11.7141	381.236	-25.0357	-0.295983	0.006	-0.462539	0	1.16165	0	-14.4174	255.492	11.4559	-0.294358	0.006	-0.726959	0	1.96334	0	0	0	0	0	0	0	0	0	0
9.2	-12.7537	382.437	-24.3465	-0.296501	0.006	-0.462509	0	1.21198	0	-15.0927	255.071	12.1701	-0.295235	0.006	-0.726799	0	2.08445	0	0	0	0	0	0	0	0	0	0
9.21	-13.593	379.19	-23.7858	-0.297336	0.006	-0.462775	0	1.27539	0	-15.5911	256.385	13.3487	-0.296184	0.006	-0.726887	0	2.20882	0	0	0	0	0	0	0	0	0	0
9.22	-14.3731	374.064	-23.0964	-0.298387	0.006	-0.462906	0	1.37771	0	-16.2787	260.197	14.6073	-0.296864	0.006	-0.727258	0	2.32465	0	0	0	0	0	0	0	0	0	0
9.23	-15.2744	370.798	-22.4774	-0.29949	0.006	-0.463124	0	1.45696	0	-17.2171	265.044	15.3677	-0.297435	0.006	-0.727537	0	2.37043	0	0	0	0	0	0	0	0	0	0
9.24	-16.22	368.519	-21.9253	-0.300455	0.006	-0.463328	0	1.53533	0	-18.6416	269.936	15.927	-0.298347	0.006	-0.727681	0	2.35338	0	0	0	0	0	0	0	0	0	0
9.25	-16.6806	365.88	-21.1603	-0.301414	0.006	-0.463475	0	1.57976	0	-20.368	275.018	16.257	-0.299109	0.006	-0.727912	0	2.32889	0	0	0	0	0	0	0	0	0	0
9.26	-16.8078	364.68	-20.0884	-0.302248	0.006	-0.463742	0	1.59431	0	-21.8784	279.738	15.8123	-0.29945	0.006	-0.728203	0	2.29801	0	0	0	0	0	0	0	0	0	0
9.27	-17.1595	365.18	-18.8578	-0.302932	0.006	-0.464143	0	1.56915	0	-23.0117	283.261	14.5988	-0.299842	0.006	-0.72828	0	2.1905	0	0	0	0	0	0	0	0	0	0
9.28	-17.7562	365.139	-17.6058	-0.30375	0.006	-0.464584	0	1.53659	0	-23.9754	286.951	13.6607	-0.300706	0.006	-0.728413	0	2.12345	0	0	0	0	0	0	0	0	0	0
9.29	-17.9152	363.63	-16.3907	-0.304754	0.006	-0.465099	0	1.5483	0	-25.2798	292.143	13.7804	-0.301373	0.006	-0.728676	0	2.10836	0	0	0	0	0	0	0	0	0	0
9.3	-17.3832	361.872	-15.1223	-0.305912	0.006	-0.46578	0	1.60028	0	-27.1137	297.362	14.7932	-0.301917	0.006	-0.729112	0	2.06804	0	0	0	0	0	0	0	0	0	0
9.31	-16.6557	362.339	-14.0641	-0.306961	0.006	-0.466216	0	1.63852	0	-28.8167	302.009	16.1813	-0.302578	0.006	-0.729506	0	2.05787	0	0	0	0	0	0	0	0	0	0
9.32	-16.6277	364.959	-13.3529	-0.307636	0.006	-0.4662	0	1.68298	0	-29.7185	306.82	17.4363	-0.303349	0.006	-0.729909	0	2.07184	0	0	0	0	0	0	0	0	0	0
